# xmcd
# 
# Track frame offsets:
#     150
#     18502
#     33990
#     52602
#     69562
#     87465
#     103142
#     121577
#     144170
#     164252
#     182710
#     197517
#     219465
#     234910
#     257465
#     278927
#     296895
#     319250
# 
# Disc length: 4490
# 
# Revision: 2
# Processed by: cddbd v1.5.2PL0 Copyright (c) Steve Scherf et al.
# Submitted via: fre:ac v1.0.31
# 
DISCID=f9118812
DTITLE=本田美奈子 - GOLDEN☆BEST 本田美奈子
DYEAR=2003
DGENRE=JPop
TTITLE0=殺意のバカンス
TTITLE1=好きと言いなさい
TTITLE2=青い週末
TTITLE3=Temptation
TTITLE4=1986年のマリリン
TTITLE5=Sosotte
TTITLE6=HELP
TTITLE7=the cross
TTITLE8=Oneway Generation
TTITLE9=CRAZY NIGHTS
TTITLE10=HEART BREAK
TTITLE11=孤独なハリケーン
TTITLE12=悲しみSWING
TTITLE13=あなたと、熱帯
TTITLE14=STAND UP
TTITLE15=勝ってにさせて
TTITLE16=7th Bird ”愛に恋”
TTITLE17=モーニング 美奈子ール
EXTD=2003.6.25
EXTT0=
EXTT1=
EXTT2=
EXTT3=
EXTT4=
EXTT5=
EXTT6=
EXTT7=
EXTT8=
EXTT9=
EXTT10=
EXTT11=
EXTT12=
EXTT13=
EXTT14=
EXTT15=
EXTT16=
EXTT17=
PLAYORDER=
